<?xml version="1.0" encoding="UTF-8"?>
<!DOCTYPE svg PUBLIC "-//W3C//DTD SVG 1.1//EN" "http://www.w3.org/Graphics/SVG/1.1/DTD/svg11.dtd">
<svg xmlns="http://www.w3.org/2000/svg" version="1.1" width="512px" height="512px" style="shape-rendering:geometricPrecision; text-rendering:geometricPrecision; image-rendering:optimizeQuality; fill-rule:evenodd; clip-rule:evenodd" xmlns:xlink="http://www.w3.org/1999/xlink">
<g><path style="opacity:0.991" fill="#fed92d" d="M 239.5,-0.5 C 244.833,-0.5 250.167,-0.5 255.5,-0.5C 255.5,29.5 255.5,59.5 255.5,89.5C 246.175,90.1584 241.175,95.1584 240.5,104.5C 241.175,113.842 246.175,118.842 255.5,119.5C 255.5,129.5 255.5,139.5 255.5,149.5C 224.271,145.75 209.437,128.083 211,96.5C 215.111,80.5904 224.611,69.2571 239.5,62.5C 240.499,51.8541 240.832,41.1874 240.5,30.5C 191.63,40.3696 161.963,69.703 151.5,118.5C 147.362,158.275 160.362,191.108 190.5,217C 205.349,228.254 222.016,235.421 240.5,238.5C 240.832,227.813 240.499,217.146 239.5,206.5C 221.202,198.524 211.535,184.524 210.5,164.5C 220.5,164.5 230.5,164.5 240.5,164.5C 241.195,173.862 246.195,178.862 255.5,179.5C 255.5,209.5 255.5,239.5 255.5,269.5C 207.718,268.114 170.051,248.114 142.5,209.5C 136.953,199.74 131.953,189.74 127.5,179.5C 110.544,121.15 124.21,71.3162 168.5,30C 189.413,13.3105 213.08,3.14386 239.5,-0.5 Z"/></g>
<g><path style="opacity:1" fill="#fcbe00" d="M 255.5,-0.5 C 260.833,-0.5 266.167,-0.5 271.5,-0.5C 332.64,10.133 371.473,45.4663 388,105.5C 392.489,130.576 390.989,155.243 383.5,179.5C 379.047,189.74 374.047,199.74 368.5,209.5C 340.986,248.097 303.319,268.097 255.5,269.5C 255.5,239.5 255.5,209.5 255.5,179.5C 268.591,176.649 272.758,168.982 268,156.5C 264.915,152.208 260.749,149.875 255.5,149.5C 255.5,139.5 255.5,129.5 255.5,119.5C 278.799,120.961 293.633,132.961 300,155.5C 302.951,179.609 293.451,196.609 271.5,206.5C 270.501,216.812 270.168,227.145 270.5,237.5C 304.879,232.389 330.712,214.723 348,184.5C 368.712,141.422 364.046,101.422 334,64.5C 317.002,45.4474 295.836,34.4474 270.5,31.5C 270.168,41.8548 270.501,52.1881 271.5,62.5C 289.819,70.4917 299.486,84.4917 300.5,104.5C 290.5,104.5 280.5,104.5 270.5,104.5C 269.167,95.8333 264.167,90.8333 255.5,89.5C 255.5,59.5 255.5,29.5 255.5,-0.5 Z"/></g>
<g><path style="opacity:1" fill="#fdbf00" d="M 255.5,149.5 C 255.5,159.5 255.5,169.5 255.5,179.5C 246.195,178.862 241.195,173.862 240.5,164.5C 230.5,164.5 220.5,164.5 210.5,164.5C 211.535,184.524 221.202,198.524 239.5,206.5C 240.499,217.146 240.832,227.813 240.5,238.5C 222.016,235.421 205.349,228.254 190.5,217C 160.362,191.108 147.362,158.275 151.5,118.5C 161.963,69.703 191.63,40.3696 240.5,30.5C 240.832,41.1874 240.499,51.8541 239.5,62.5C 224.611,69.2571 215.111,80.5904 211,96.5C 209.437,128.083 224.271,145.75 255.5,149.5 Z"/></g>
<g><path style="opacity:1" fill="#fe9100" d="M 255.5,119.5 C 255.5,109.5 255.5,99.5 255.5,89.5C 264.167,90.8333 269.167,95.8333 270.5,104.5C 280.5,104.5 290.5,104.5 300.5,104.5C 299.486,84.4917 289.819,70.4917 271.5,62.5C 270.501,52.1881 270.168,41.8548 270.5,31.5C 295.836,34.4474 317.002,45.4474 334,64.5C 364.046,101.422 368.712,141.422 348,184.5C 330.712,214.723 304.879,232.389 270.5,237.5C 270.168,227.145 270.501,216.812 271.5,206.5C 293.451,196.609 302.951,179.609 300,155.5C 293.633,132.961 278.799,120.961 255.5,119.5 Z"/></g>
<g><path style="opacity:1" fill="#fdbf01" d="M 255.5,89.5 C 255.5,99.5 255.5,109.5 255.5,119.5C 246.175,118.842 241.175,113.842 240.5,104.5C 241.175,95.1584 246.175,90.1584 255.5,89.5 Z"/></g>
<g><path style="opacity:1" fill="#ff9100" d="M 255.5,149.5 C 260.749,149.875 264.915,152.208 268,156.5C 272.758,168.982 268.591,176.649 255.5,179.5C 255.5,169.5 255.5,159.5 255.5,149.5 Z"/></g>
<g><path style="opacity:0.984" fill="#e53950" d="M 127.5,179.5 C 131.953,189.74 136.953,199.74 142.5,209.5C 133.5,209.5 124.5,209.5 115.5,209.5C 111.05,238.866 106.383,268.2 101.5,297.5C 100.596,298.209 100.263,299.209 100.5,300.5C 90.1667,300.5 79.8333,300.5 69.5,300.5C 76.7019,260.289 83.3685,219.955 89.5,179.5C 102.167,179.5 114.833,179.5 127.5,179.5 Z"/></g>
<g><path style="opacity:1" fill="#ae2538" d="M 383.5,179.5 C 396.167,179.5 408.833,179.5 421.5,179.5C 427.631,219.955 434.298,260.289 441.5,300.5C 431.167,300.5 420.833,300.5 410.5,300.5C 405.392,270.187 400.392,239.853 395.5,209.5C 386.5,209.5 377.5,209.5 368.5,209.5C 374.047,199.74 379.047,189.74 383.5,179.5 Z"/></g>
<g><path style="opacity:1" fill="#537882" d="M 142.5,209.5 C 170.051,248.114 207.718,268.114 255.5,269.5C 255.5,279.833 255.5,290.167 255.5,300.5C 204.167,300.5 152.833,300.5 101.5,300.5C 101.5,299.5 101.5,298.5 101.5,297.5C 106.383,268.2 111.05,238.866 115.5,209.5C 124.5,209.5 133.5,209.5 142.5,209.5 Z"/></g>
<g><path style="opacity:1" fill="#3e5958" d="M 368.5,209.5 C 377.5,209.5 386.5,209.5 395.5,209.5C 400.392,239.853 405.392,270.187 410.5,300.5C 358.833,300.5 307.167,300.5 255.5,300.5C 255.5,290.167 255.5,279.833 255.5,269.5C 303.319,268.097 340.986,248.097 368.5,209.5 Z"/></g>
<g><path style="opacity:1" fill="#fe637a" d="M 101.5,297.5 C 101.5,298.5 101.5,299.5 101.5,300.5C 152.833,300.5 204.167,300.5 255.5,300.5C 255.5,330.5 255.5,360.5 255.5,390.5C 230.5,390.5 205.5,390.5 180.5,390.5C 180.5,410.5 180.5,430.5 180.5,450.5C 170.5,450.5 160.5,450.5 150.5,450.5C 120.5,450.5 90.5,450.5 60.5,450.5C 50.5,450.5 40.5,450.5 30.5,450.5C 30.5,400.5 30.5,350.5 30.5,300.5C 43.5,300.5 56.5,300.5 69.5,300.5C 79.8333,300.5 90.1667,300.5 100.5,300.5C 100.263,299.209 100.596,298.209 101.5,297.5 Z"/></g>
<g><path style="opacity:1" fill="#e6394f" d="M 255.5,300.5 C 307.167,300.5 358.833,300.5 410.5,300.5C 420.833,300.5 431.167,300.5 441.5,300.5C 454.5,300.5 467.5,300.5 480.5,300.5C 480.5,350.5 480.5,400.5 480.5,450.5C 470.5,450.5 460.5,450.5 450.5,450.5C 420.5,450.5 390.5,450.5 360.5,450.5C 350.5,450.5 340.5,450.5 330.5,450.5C 330.5,430.5 330.5,410.5 330.5,390.5C 305.5,390.5 280.5,390.5 255.5,390.5C 255.5,360.5 255.5,330.5 255.5,300.5 Z"/></g>
<g><path style="opacity:1" fill="#ffd82e" d="M 113.5,345.5 C 138.499,344.667 150.666,356.667 150,381.5C 144.412,399.404 132.245,407.237 113.5,405C 96.2118,398.932 88.7118,386.765 91,368.5C 94.684,356.984 102.184,349.317 113.5,345.5 Z"/></g>
<g><path style="opacity:1" fill="#fcbd01" d="M 383.5,345.5 C 408.499,344.667 420.666,356.667 420,381.5C 414.412,399.404 402.245,407.237 383.5,405C 366.212,398.932 358.712,386.765 361,368.5C 364.684,356.984 372.184,349.317 383.5,345.5 Z"/></g>
<g><path style="opacity:1" fill="#e5394f" d="M 255.5,390.5 C 255.5,410.5 255.5,430.5 255.5,450.5C 230.5,450.5 205.5,450.5 180.5,450.5C 180.5,430.5 180.5,410.5 180.5,390.5C 205.5,390.5 230.5,390.5 255.5,390.5 Z"/></g>
<g><path style="opacity:1" fill="#ad2537" d="M 255.5,390.5 C 280.5,390.5 305.5,390.5 330.5,390.5C 330.5,410.5 330.5,430.5 330.5,450.5C 305.5,450.5 280.5,450.5 255.5,450.5C 255.5,430.5 255.5,410.5 255.5,390.5 Z"/></g>
<g><path style="opacity:1" fill="#537982" d="M 60.5,450.5 C 90.5,450.5 120.5,450.5 150.5,450.5C 150.5,470.833 150.5,491.167 150.5,511.5C 120.5,511.5 90.5,511.5 60.5,511.5C 60.5,491.167 60.5,470.833 60.5,450.5 Z"/></g>
<g><path style="opacity:1" fill="#3e5958" d="M 360.5,450.5 C 390.5,450.5 420.5,450.5 450.5,450.5C 450.5,470.833 450.5,491.167 450.5,511.5C 420.5,511.5 390.5,511.5 360.5,511.5C 360.5,491.167 360.5,470.833 360.5,450.5 Z"/></g>
</svg>
